<?xml version="1.0" standalone="no"?>
<!DOCTYPE svg PUBLIC "-//W3C//DTD SVG 20010904//EN"
 "http://www.w3.org/TR/2001/REC-SVG-20010904/DTD/svg10.dtd">
<svg version="1.0" xmlns="http://www.w3.org/2000/svg"
 width="640.000000pt" height="1280.000000pt" viewBox="0 0 640.000000 1280.000000"
 preserveAspectRatio="xMidYMid meet">
<metadata>
Created by potrace 1.15, written by Peter Selinger 2001-2017
</metadata>
<g transform="translate(0.000000,1280.000000) scale(0.100000,-0.100000)"
fill="#ffffff" stroke="none">
<path d="M757 12786 c-9 -22 21 -70 124 -206 53 -69 146 -197 207 -285 115
-167 194 -256 207 -235 12 19 -57 144 -193 350 -127 192 -197 281 -278 353
-45 40 -59 45 -67 23z"/>
<path d="M1344 12605 c-3 -13 -1 -46 5 -72 5 -27 13 -79 16 -118 10 -116 25
-214 50 -326 20 -84 22 -113 14 -142 -13 -47 -26 -54 -41 -23 -12 28 -33 34
-41 14 -6 -19 10 -69 31 -92 25 -30 46 -79 71 -171 12 -44 44 -131 71 -195 27
-63 59 -155 70 -205 16 -65 28 -96 45 -110 46 -39 180 -348 260 -599 42 -132
67 -236 96 -400 57 -319 98 -526 111 -549 10 -20 11 -20 24 -2 8 11 12 32 9
50 -3 16 -18 112 -35 212 -16 100 -30 187 -30 194 0 28 28 -15 55 -84 30 -80
51 -114 62 -103 10 9 -5 54 -82 256 -75 196 -99 291 -150 579 -19 109 -46 248
-59 308 -13 59 -32 155 -41 213 -23 139 -38 162 -30 45 4 -70 41 -361 69 -542
6 -42 -12 -24 -33 32 -12 31 -21 58 -21 61 0 3 -46 121 -101 262 -56 142 -110
285 -120 320 -10 34 -25 76 -33 94 -9 17 -16 52 -16 77 -1 58 -15 122 -30 131
-9 5 -9 9 -1 14 20 13 12 75 -18 129 -34 62 -53 139 -81 342 -11 83 -26 184
-34 225 -8 41 -14 94 -14 118 -1 56 -10 82 -27 82 -8 0 -17 -11 -21 -25z"/>
<path d="M1620 12395 c0 -25 9 -85 20 -133 10 -49 28 -147 40 -219 11 -72 29
-170 40 -217 12 -48 32 -151 46 -229 30 -173 41 -217 56 -217 16 0 2 179 -18
233 -8 23 -19 92 -24 152 -10 135 -86 595 -105 641 -9 23 -21 34 -34 34 -18 0
-21 -6 -21 -45z"/>
<path d="M890 12375 c-16 -19 -1 -106 47 -264 18 -62 40 -147 48 -187 8 -41
23 -95 34 -120 18 -41 23 -45 37 -33 18 15 15 51 -16 164 -11 39 -37 144 -59
235 -54 226 -61 241 -91 205z"/>
<path d="M2746 12066 c-7 -37 10 -450 20 -501 4 -16 12 -38 19 -48 29 -42 29
-11 2 533 -1 32 -7 46 -18 48 -12 2 -18 -7 -23 -32z"/>
<path d="M1502 12040 c0 -19 2 -27 5 -17 2 9 2 25 0 35 -3 9 -5 1 -5 -18z"/>
<path d="M2323 12034 c3 -11 9 -35 12 -56 4 -20 18 -45 31 -57 28 -24 30 -47
10 -87 -17 -32 -18 -30 41 -274 24 -102 51 -230 59 -285 8 -54 20 -105 26
-113 27 -32 28 14 3 194 -14 104 -32 239 -40 299 -8 61 -22 142 -30 180 -9 39
-20 93 -26 120 -16 70 -28 89 -29 43 0 -54 -18 -56 -31 -3 -6 25 -16 48 -21
51 -6 4 -8 -1 -5 -12z"/>
<path d="M1056 11668 c31 -176 204 -748 226 -748 7 0 9 28 6 78 -4 56 -18 114
-52 215 -26 75 -56 179 -66 230 -26 123 -79 257 -102 257 -14 0 -16 -6 -12
-32z"/>
<path d="M5657 11321 c-41 -27 -94 -67 -118 -88 -61 -55 -221 -234 -290 -324
-151 -199 -407 -662 -492 -889 -19 -52 -55 -167 -80 -255 -24 -88 -67 -239
-95 -335 -28 -96 -67 -242 -86 -325 -20 -82 -58 -247 -86 -365 -28 -118 -59
-262 -70 -320 -10 -58 -30 -166 -44 -240 -37 -194 -72 -428 -96 -634 -18 -162
-23 -183 -47 -214 -23 -30 -26 -46 -29 -123 -2 -48 -10 -128 -18 -176 -16 -95
-30 -248 -46 -521 -6 -95 -13 -178 -15 -185 -2 -6 -13 -111 -25 -232 -32 -349
-33 -355 -40 -360 -4 -3 -11 41 -15 97 -8 114 -16 114 -41 -2 -31 -148 -61
-178 -38 -38 40 242 60 512 69 918 3 151 13 338 21 415 25 241 43 462 54 675
6 113 20 302 30 420 25 279 46 653 65 1180 9 234 20 455 25 492 18 123 8 408
-15 408 -22 0 -45 -275 -65 -790 -38 -968 -61 -1362 -110 -1874 -22 -226 -47
-555 -55 -731 -20 -419 -20 -417 -54 -396 -12 8 -12 37 3 207 27 317 37 756
26 1134 -11 385 -41 805 -71 1000 -40 266 -80 498 -120 699 -47 234 -47 200
12 566 21 132 39 258 39 280 0 22 5 58 10 80 15 67 51 448 45 474 -6 24 -6 24
-25 5 -22 -22 -38 -130 -70 -466 -24 -258 -50 -458 -60 -458 -12 0 -20 41 -20
110 0 76 -35 556 -50 679 -9 84 -14 100 -27 88 -6 -7 12 -570 24 -736 4 -55 3
-82 -4 -78 -11 7 -15 20 -112 349 -64 218 -101 315 -108 286 -8 -32 38 -250
88 -415 27 -92 53 -189 58 -217 5 -28 25 -114 45 -191 51 -196 52 -234 22
-475 -14 -113 -35 -311 -46 -440 -12 -129 -25 -282 -30 -340 -5 -58 -26 -196
-46 -308 -26 -144 -34 -206 -27 -213 17 -17 31 17 52 123 22 106 69 443 103
728 18 161 24 187 30 155 13 -60 -10 -1302 -27 -1495 -8 -91 -14 -173 -15
-183 0 -9 -11 -27 -25 -39 -39 -34 -119 -78 -127 -70 -4 4 -3 43 1 87 5 53 3
118 -6 190 -7 61 -16 155 -20 211 -5 97 -7 101 -28 97 -12 -3 -41 0 -64 7
l-42 11 6 52 c4 29 13 99 21 157 35 265 9 1096 -56 1725 -44 429 -44 427 -70
570 -10 55 -21 132 -25 170 -6 66 -33 214 -56 318 -7 28 -16 47 -25 47 -8 0
-14 -2 -14 -3 0 -33 54 -375 69 -437 12 -47 21 -112 21 -146 0 -33 4 -85 9
-115 23 -138 66 -552 86 -837 9 -118 20 -236 25 -264 6 -27 7 -60 5 -72 -3
-11 -1 -51 4 -88 11 -78 -3 -556 -17 -570 -5 -5 -33 44 -65 112 -42 87 -57
131 -57 162 0 24 -5 61 -11 82 -17 62 -29 25 -29 -90 0 -64 -6 -120 -17 -155
-16 -53 -16 -54 -24 -24 -5 17 -13 165 -18 330 -8 224 -17 346 -36 480 -14 99
-39 314 -54 478 -27 275 -38 334 -58 313 -13 -13 -6 -250 11 -391 33 -280 55
-452 65 -500 17 -89 25 -229 12 -221 -6 4 -11 15 -11 25 0 20 -19 41 -36 41
-7 0 -27 -12 -44 -26 -17 -15 -32 -25 -34 -23 -2 2 -13 34 -25 70 -19 57 -23
103 -31 305 -9 240 -27 408 -91 823 -16 106 -41 274 -55 373 -14 99 -30 192
-35 206 -26 67 -39 -70 -19 -193 5 -33 25 -186 45 -340 19 -154 44 -329 55
-390 30 -167 60 -439 60 -539 l0 -88 -29 5 c-17 4 -36 0 -47 -8 -11 -8 -22
-15 -25 -15 -8 0 -61 118 -83 185 -17 52 -105 178 -136 195 -27 15 -50 -19
-61 -91 -29 -192 -39 -282 -39 -356 0 -45 -4 -84 -8 -87 -4 -3 -19 1 -33 7
-17 9 -25 22 -27 47 -1 19 -16 103 -33 185 -33 163 -64 250 -79 225 -11 -18
-5 -96 20 -245 18 -105 17 -165 -1 -165 -12 0 -25 29 -33 75 -4 22 -32 130
-62 240 -82 303 -169 638 -195 753 -13 56 -27 102 -31 102 -15 0 -8 -155 11
-235 10 -44 24 -111 30 -150 14 -83 106 -446 162 -634 21 -74 39 -139 39 -146
0 -7 -18 -15 -39 -19 -38 -6 -71 -35 -71 -62 0 -16 151 -135 275 -216 55 -37
114 -81 130 -98 l30 -33 -30 8 c-105 26 -205 23 -307 -9 -45 -14 -48 -14 -58
3 -42 80 -217 614 -231 706 -5 33 -29 113 -53 177 -25 64 -93 287 -151 495
-58 208 -119 421 -136 473 -29 92 -81 200 -97 200 -16 0 6 -128 41 -240 49
-159 84 -295 92 -360 8 -74 246 -794 421 -1278 l74 -203 -14 -59 c-16 -68 -15
-71 56 -119 40 -26 55 -46 87 -114 22 -46 43 -95 46 -110 4 -14 24 -46 44 -69
47 -53 51 -62 91 -173 22 -62 31 -107 31 -146 0 -52 2 -59 34 -88 20 -17 35
-41 35 -54 1 -12 22 -76 49 -142 27 -68 44 -122 38 -124 -6 -2 -30 7 -54 20
-40 22 -45 23 -71 9 -15 -9 -28 -23 -30 -33 -5 -24 59 -192 124 -326 31 -62
52 -117 47 -121 -4 -5 -17 -10 -28 -12 -29 -5 -31 -50 -4 -98 12 -22 20 -42
17 -45 -2 -3 -33 43 -68 103 -35 59 -116 186 -181 282 -131 197 -140 212 -165
293 -14 44 -23 59 -41 63 -26 7 -85 88 -131 180 -29 59 -45 114 -79 272 -10
46 -22 81 -28 78 -5 -2 -8 -10 -6 -17 2 -8 3 -28 3 -46 -1 -18 6 -49 14 -69
10 -23 12 -40 6 -46 -11 -11 -57 50 -139 187 -118 196 -151 266 -178 375 -14
58 -30 115 -35 128 -17 39 -30 24 -30 -35 l-1 -58 -24 30 c-14 17 -43 65 -65
107 -23 43 -56 97 -75 122 -18 24 -41 59 -51 78 -29 56 -106 168 -116 168 -10
0 33 -81 91 -170 20 -30 43 -71 51 -90 29 -67 69 -136 85 -150 9 -8 27 -35 40
-60 13 -26 35 -60 49 -77 13 -16 28 -42 32 -58 4 -16 15 -43 25 -60 9 -16 20
-46 23 -65 13 -69 59 -257 86 -355 16 -55 32 -125 35 -155 4 -30 9 -64 11 -75
3 -13 -12 -1 -40 30 -24 27 -47 47 -50 44 -3 -3 17 -43 45 -89 28 -46 66 -121
84 -165 37 -89 158 -564 153 -598 -5 -31 -78 94 -256 438 -246 476 -328 630
-414 775 -46 77 -95 164 -111 193 -15 29 -39 63 -53 77 l-26 25 6 -30 c4 -16
16 -43 26 -60 42 -67 122 -245 146 -325 14 -47 41 -132 59 -190 18 -58 56
-181 84 -275 29 -93 57 -183 63 -200 5 -16 16 -54 23 -83 7 -29 25 -72 39 -96
14 -25 26 -53 26 -62 0 -32 42 -197 71 -279 15 -44 44 -134 65 -200 20 -66 46
-147 59 -180 12 -33 37 -109 54 -170 18 -60 47 -148 65 -195 18 -47 36 -98 40
-113 13 -53 228 -632 256 -687 15 -30 43 -93 63 -140 32 -77 73 -165 167 -363
17 -37 37 -66 43 -64 17 6 10 31 -22 85 -15 26 -42 85 -60 132 -19 47 -57 139
-86 205 -29 66 -60 143 -68 170 -8 28 -26 75 -40 105 -64 144 -450 1280 -572
1685 -64 214 -87 290 -139 460 -30 99 -57 198 -61 220 l-7 40 27 -45 c57 -95
162 -293 262 -495 58 -115 158 -311 223 -435 129 -243 149 -300 195 -532 43
-215 104 -484 140 -618 19 -69 39 -150 44 -180 10 -54 104 -399 136 -495 106
-327 154 -480 150 -483 -2 -2 -16 19 -32 48 -34 64 -72 111 -72 90 0 -8 35
-82 77 -165 61 -119 82 -151 101 -155 16 -4 32 -21 47 -50 36 -71 104 -217
104 -224 0 -3 -18 -18 -40 -32 -43 -29 -60 -61 -39 -75 8 -5 32 -9 54 -10 86
-2 81 5 150 -209 35 -107 73 -220 84 -250 23 -61 26 -86 12 -95 -15 -8 -25 15
-117 267 -46 127 -89 236 -95 244 -6 8 -18 14 -26 14 -20 0 -12 -46 26 -155
16 -44 51 -145 78 -225 64 -186 74 -206 113 -213 57 -12 30 -50 -54 -77 -31
-10 -41 -10 -52 1 -7 8 -38 77 -68 154 -30 77 -100 250 -156 385 -200 483
-474 1240 -724 2000 -54 162 -101 304 -106 315 -5 11 -14 37 -20 57 -11 38
-30 60 -30 37 0 -28 95 -366 150 -534 32 -99 79 -247 103 -330 52 -173 279
-842 327 -960 17 -44 58 -152 90 -240 32 -88 90 -236 130 -330 123 -291 191
-466 187 -478 -4 -14 -122 174 -142 227 -8 23 -45 129 -83 236 -109 308 -149
400 -173 400 -17 0 -9 -33 61 -248 39 -118 68 -217 65 -220 -7 -7 -1 -14 -92
123 -58 89 -84 139 -100 195 -150 519 -273 924 -413 1355 -38 116 -92 286
-120 380 -28 93 -58 181 -66 195 -14 24 -15 23 -9 -25 11 -86 64 -307 89 -370
13 -33 26 -78 30 -100 4 -22 38 -137 75 -255 171 -537 301 -980 301 -1020 -1
-11 -4 -10 -16 5 -37 48 -250 458 -334 639 -117 257 -361 827 -456 1071 -73
186 -87 215 -100 202 -8 -8 41 -182 78 -277 17 -41 56 -147 88 -236 53 -146
141 -357 295 -709 31 -71 83 -177 115 -235 32 -58 90 -170 130 -250 40 -80
118 -221 173 -315 l102 -170 51 -195 c28 -107 67 -249 87 -315 19 -66 47 -176
62 -245 14 -69 29 -133 31 -142 3 -10 1 -18 -3 -18 -21 0 -226 391 -383 732
-39 84 -75 157 -81 162 -28 29 -13 -23 56 -196 88 -220 202 -454 330 -678 49
-85 110 -200 136 -255 45 -96 151 -430 300 -944 33 -112 77 -260 99 -330 30
-97 190 -691 190 -707 0 -2 14 -19 30 -38 17 -18 40 -56 52 -82 21 -45 22 -60
18 -204 -9 -335 -6 -445 13 -474 10 -14 22 -26 27 -26 18 0 41 61 50 137 33
269 42 380 39 473 l-4 105 83 3 c101 3 103 1 78 -112 -46 -210 -66 -359 -68
-514 l-3 -157 25 0 c40 0 60 55 70 192 12 163 60 417 100 536 11 31 20 63 20
70 0 22 96 174 151 240 30 35 108 125 174 201 238 271 235 265 158 301 -49 22
-52 34 -19 78 33 45 62 104 75 157 13 51 70 182 83 191 12 8 28 104 28 168 0
31 9 94 21 141 71 300 113 555 130 795 6 88 19 207 30 265 34 187 59 356 89
608 17 136 42 319 55 407 13 88 31 234 39 325 9 91 29 314 46 495 17 182 39
395 50 475 21 160 33 283 50 500 6 80 23 262 36 405 31 324 40 460 54 795 13
317 25 474 45 595 8 50 26 185 40 300 25 210 57 371 141 709 24 99 44 190 44
203 0 14 6 52 14 86 53 226 76 334 76 348 0 9 11 54 25 100 14 46 36 132 50
191 49 217 228 712 340 943 24 50 98 167 166 260 67 94 131 185 142 203 l20
33 -23 24 c-38 40 -84 34 -173 -24z m-376 -673 c-205 -473 -326 -816 -451
-1283 -34 -126 -97 -354 -140 -505 -110 -386 -127 -457 -231 -980 -88 -437
-93 -472 -91 -576 2 -124 13 -167 39 -162 25 5 35 74 29 193 -5 87 -3 111 19
184 14 47 30 123 35 170 6 47 20 124 30 171 11 47 26 141 35 209 15 116 48
259 145 625 36 136 60 198 60 154 0 -39 -33 -261 -75 -508 -25 -146 -52 -314
-60 -375 -9 -60 -24 -171 -35 -245 -35 -234 -50 -417 -60 -705 -6 -154 -13
-291 -16 -305 -3 -14 -12 -70 -19 -125 -8 -55 -21 -138 -29 -185 -21 -110 -22
-362 -3 -379 11 -8 18 -6 31 8 27 29 35 84 36 217 0 87 5 134 16 165 13 36 18
112 24 404 14 602 26 754 95 1170 14 83 29 188 34 235 5 47 14 98 20 113 6 16
11 40 11 54 0 14 18 89 39 167 22 77 47 185 57 239 10 62 23 106 35 120 l19
22 -5 -25 c-2 -14 -23 -115 -46 -225 -22 -110 -54 -292 -70 -405 -16 -113 -39
-260 -49 -328 -19 -119 -27 -240 -50 -772 -6 -140 -18 -320 -26 -400 -8 -80
-21 -226 -29 -325 -8 -99 -31 -324 -50 -500 -20 -176 -49 -495 -65 -710 -48
-623 -75 -874 -96 -894 -11 -10 6 565 21 719 20 210 33 361 41 475 3 55 13
113 21 128 10 20 12 45 8 85 -11 103 -17 132 -26 132 -24 0 -32 -61 -45 -314
-8 -149 -18 -305 -23 -346 -21 -157 -42 -447 -56 -770 -8 -184 -18 -346 -21
-360 -3 -14 -7 -126 -9 -250 -2 -182 -7 -244 -23 -325 -24 -114 -51 -320 -87
-680 -26 -257 -57 -462 -80 -524 l-14 -36 0 66 c-1 92 -10 98 -108 71 -42 -12
-81 -18 -86 -15 -19 12 4 93 72 245 40 90 87 179 110 208 23 29 41 56 41 61 0
24 -66 47 -152 54 -61 5 -91 12 -95 21 -3 7 11 40 31 72 109 180 215 507 182
560 -10 17 -24 15 -85 -13 -30 -14 -56 -23 -59 -21 -2 3 23 63 57 135 34 71
70 154 81 183 10 29 31 87 46 128 22 60 27 94 28 172 1 84 -2 100 -20 125 -18
24 -29 28 -66 27 -52 0 -129 -35 -207 -94 -30 -22 -58 -40 -62 -40 -3 0 6 37
22 83 15 45 46 154 69 242 22 88 53 185 69 215 16 30 54 104 86 163 54 103 56
109 40 127 -10 11 -33 24 -51 30 -25 9 -34 17 -34 34 0 70 109 1448 115 1454
1 2 6 -29 10 -67 5 -47 11 -71 20 -71 20 0 25 33 35 220 20 388 93 992 165
1360 13 69 31 177 40 240 19 139 75 410 85 410 4 0 12 -11 18 -25 23 -51 71
-18 97 67 18 61 58 328 51 336 -3 3 -8 -1 -10 -9 -3 -8 -21 -57 -39 -109 -19
-52 -40 -118 -46 -147 -12 -49 -44 -93 -58 -80 -13 14 110 526 190 792 20 66
52 177 71 247 19 69 51 171 71 225 45 119 135 313 146 313 5 0 4 -12 -2 -27
-41 -107 -154 -477 -224 -733 -83 -306 -107 -420 -87 -420 12 0 44 81 62 160
21 88 217 700 280 875 65 178 140 351 202 465 57 104 152 252 156 241 2 -5
-33 -92 -77 -193z m-175 -694 c-14 -60 -45 -194 -69 -299 -41 -174 -58 -252
-102 -479 -8 -44 -16 -80 -18 -81 -1 0 -15 -5 -31 -10 -21 -7 -39 -27 -62 -70
-19 -33 -34 -53 -34 -45 0 18 171 623 219 775 42 134 113 327 117 322 2 -2 -7
-53 -20 -113z m-2633 -575 c65 -168 96 -344 67 -389 -8 -13 -14 -13 -44 4 -83
44 -94 75 -103 292 -6 158 0 228 20 221 6 -2 33 -59 60 -128z m1246 -399 c89
-623 104 -842 105 -1555 1 -565 -7 -737 -41 -897 -9 -43 -20 -78 -24 -78 -5 0
-6 42 -2 93 7 117 -14 507 -30 525 -7 9 -22 11 -43 8 l-32 -6 33 114 c19 64
40 126 47 139 7 14 21 39 32 58 18 33 18 33 -3 50 -13 11 -49 21 -92 25 -58 5
-69 9 -65 23 34 114 46 372 53 1120 3 381 9 687 14 679 4 -7 26 -142 48 -298z
m-990 102 c19 -58 20 -76 12 -132 -10 -69 -65 -205 -79 -196 -17 10 -34 152
-30 241 3 65 11 104 27 140 20 45 24 48 36 32 7 -10 22 -48 34 -85z m-554 -13
c90 -34 288 -184 338 -257 23 -33 52 -122 40 -122 -3 0 -51 42 -107 93 -55 52
-146 126 -201 165 -133 95 -159 118 -151 131 10 15 17 14 81 -10z m723 -186
c19 -65 34 -269 30 -412 l-3 -137 -47 -97 c-26 -53 -49 -97 -51 -97 -8 0 -57
138 -77 214 -14 57 -20 112 -20 197 0 106 3 126 31 206 39 109 64 159 86 172
23 13 37 0 51 -46z m-538 -236 c99 -28 225 -91 252 -127 20 -27 43 -179 29
-193 -4 -4 -27 -1 -52 8 -24 8 -63 20 -87 25 -33 9 -64 31 -141 104 -106 100
-165 144 -221 166 -46 17 -61 30 -53 43 10 16 178 0 273 -26z m-235 -97 c15
-6 50 -30 79 -53 28 -24 70 -55 94 -70 23 -15 42 -31 42 -36 0 -5 -26 -15 -57
-21 -32 -6 -68 -14 -79 -17 -16 -3 -27 4 -43 26 -33 46 -83 159 -76 171 8 12
8 12 40 0z m995 -92 c34 -77 63 -280 57 -398 -6 -114 -12 -135 -90 -318 -52
-121 -52 -122 -59 -85 -4 21 -7 68 -7 105 -1 73 -12 92 -30 52 -9 -21 -14 -24
-26 -14 -19 15 -32 58 -50 158 -12 72 -12 89 1 139 8 32 28 79 44 105 16 27
39 81 51 120 26 90 69 178 86 178 2 0 13 -19 23 -42z m-544 -207 c98 -64 171
-154 226 -276 25 -56 56 -191 46 -201 -3 -2 -48 25 -102 60 -53 35 -124 74
-156 86 -49 18 -61 28 -66 49 -29 134 -58 192 -128 261 -25 24 -46 48 -46 52
0 4 38 8 83 8 81 0 86 -2 143 -39z m-980 -93 c26 -40 73 -113 105 -163 81
-126 105 -184 124 -305 9 -58 23 -130 30 -161 8 -31 15 -83 15 -114 0 -73 -7
-68 -99 69 -78 118 -103 186 -187 524 -62 246 -57 222 -44 222 6 0 31 -33 56
-72z m739 8 c44 -46 100 -167 93 -202 -2 -12 -13 -20 -31 -22 -30 -4 -32 0
-15 28 10 16 8 25 -20 62 -35 46 -92 151 -92 168 0 21 25 8 65 -34z m169 -322
c19 -19 21 -34 3 -34 -17 0 -37 20 -37 37 0 18 15 16 34 -3z m189 -76 c100
-59 165 -128 215 -229 50 -101 61 -149 62 -251 0 -66 -3 -78 -17 -78 -31 0
-114 63 -170 129 -66 78 -91 130 -137 289 -41 143 -49 182 -35 182 6 0 43 -19
82 -42z m594 26 c3 -8 0 -56 -7 -105 l-12 -89 27 -32 c27 -31 27 -34 20 -121
-9 -119 -25 -176 -83 -299 -27 -57 -54 -115 -60 -130 -23 -55 -32 -30 -33 90
-1 96 -3 111 -11 82 -6 -19 -16 -53 -23 -75 l-13 -40 -10 27 c-43 108 -8 377
69 531 37 72 108 177 121 177 5 0 11 -7 15 -16z m-786 -67 c28 -19 39 -38 65
-112 44 -127 50 -155 30 -155 -9 0 -32 15 -51 33 -27 25 -44 58 -74 145 -35
100 -38 112 -22 112 10 0 33 -10 52 -23z m-568 -107 c70 -106 122 -230 137
-325 6 -38 20 -110 31 -160 20 -94 24 -145 11 -145 -10 0 -115 136 -136 178
-24 46 -52 160 -80 326 -32 188 -36 216 -28 215 4 0 33 -40 65 -89z m-121
-305 c91 -141 117 -205 149 -373 17 -86 43 -208 60 -271 46 -179 38 -194 -36
-68 -84 140 -110 216 -184 529 -73 304 -83 363 -52 293 10 -22 38 -71 63 -110z
m753 63 c79 -20 81 -22 160 -104 47 -48 106 -98 143 -119 70 -40 109 -91 138
-177 17 -51 44 -257 36 -272 -3 -5 -39 27 -81 71 -47 50 -124 113 -201 166
-149 103 -238 188 -285 272 -32 57 -75 165 -75 187 0 12 58 3 165 -24z m1085
-13 c0 -30 -61 -176 -160 -385 -112 -235 -150 -340 -211 -583 -22 -88 -43
-165 -46 -170 -37 -61 -68 472 -35 615 16 68 119 278 162 330 61 73 242 207
283 208 4 0 7 -7 7 -15z m-1539 -28 c132 -184 255 -379 294 -467 26 -58 58
-119 71 -137 25 -33 36 -58 48 -105 5 -23 3 -27 -24 -33 -16 -4 -32 -11 -35
-16 -4 -5 -15 -13 -25 -19 -17 -9 -27 2 -85 87 -37 54 -82 120 -101 146 -37
53 -84 193 -109 324 -8 44 -26 112 -40 151 -14 40 -25 76 -25 82 0 17 14 11
31 -13z m-53 -374 c87 -118 117 -186 166 -369 48 -178 126 -524 126 -559 0
-44 -151 191 -192 298 -19 49 -138 534 -152 622 -4 22 -9 48 -12 58 -11 35 16
15 64 -50z m1562 58 c0 -5 -7 -14 -15 -21 -16 -14 -18 -10 -9 14 6 17 24 22
24 7z m39 -273 c0 -112 -4 -243 -8 -291 -7 -81 -10 -90 -41 -122 -31 -32 -60
-46 -60 -27 0 4 7 43 15 87 32 178 12 173 -35 -8 -38 -145 -56 -187 -123 -284
-30 -43 -71 -109 -92 -146 -20 -37 -40 -66 -43 -63 -17 17 38 343 87 516 41
146 106 310 143 361 53 76 140 179 149 179 5 0 9 -91 8 -202z m-997 145 c55
-21 178 -103 224 -150 47 -46 98 -127 141 -222 36 -78 69 -189 59 -198 -3 -3
-20 7 -38 22 -18 15 -34 23 -35 18 -2 -5 12 -43 31 -84 75 -162 70 -223 -11
-118 -104 135 -198 242 -252 285 -31 24 -72 58 -93 74 -40 33 -72 105 -114
258 -33 121 -32 132 11 132 19 0 54 -8 77 -17z m1488 -225 c0 -7 -5 -20 -10
-28 -8 -12 -10 -9 -10 13 0 15 5 27 10 27 6 0 10 -6 10 -12z m-1832 -70 c101
-147 242 -506 242 -615 0 -31 -4 -36 -46 -55 -25 -11 -50 -16 -54 -11 -8 8
-86 279 -121 423 -28 112 -69 289 -69 295 0 17 23 -1 48 -37z m-260 -257 c64
-116 74 -142 122 -326 67 -259 160 -585 215 -756 24 -74 55 -189 70 -255 14
-65 30 -132 35 -149 22 -79 22 -82 -15 -104 -19 -11 -35 -27 -35 -34 0 -21 33
-47 73 -58 20 -5 45 -22 56 -37 21 -31 88 -193 116 -284 17 -54 35 -77 35 -43
0 8 -21 80 -47 160 -35 111 -43 149 -34 158 8 8 16 6 32 -9 16 -16 30 -65 57
-202 20 -99 34 -184 30 -187 -3 -4 -24 -9 -45 -12 -36 -4 -39 -2 -62 39 -13
24 -43 68 -65 98 -95 125 -241 523 -377 1027 -34 125 -71 266 -81 313 -11 47
-44 186 -73 310 -73 307 -115 489 -115 502 0 28 45 -35 108 -151z m465 86 c27
-40 39 -76 107 -307 45 -151 44 -150 28 -150 -19 0 -46 63 -159 373 -48 129
-34 174 24 84z m198 -28 c131 -83 336 -366 410 -564 11 -31 18 -59 15 -63 -4
-3 -19 4 -34 16 -74 60 -138 96 -228 130 -95 36 -100 39 -121 82 -12 25 -32
81 -44 125 -11 44 -34 123 -50 176 -16 53 -29 104 -29 113 0 24 28 19 81 -15z
m1156 -105 c-4 -76 -14 -198 -22 -273 -8 -75 -19 -175 -24 -223 -10 -85 -31
-148 -52 -148 -6 0 -8 8 -5 18 16 55 38 251 33 300 -2 33 3 104 14 167 9 61
20 135 24 165 8 67 24 130 32 130 3 0 3 -61 0 -136z m-131 -74 c-16 -173 -122
-490 -217 -649 -59 -98 -84 -129 -95 -118 -6 6 25 95 70 202 24 58 26 79 6 59
-22 -22 -131 -332 -170 -482 -28 -109 -39 28 -20 247 12 129 42 307 69 404 27
100 73 167 214 311 115 118 128 129 138 112 8 -12 9 -44 5 -86z m-1413 -317
c80 -122 85 -131 91 -198 9 -87 41 -223 101 -430 55 -188 110 -454 96 -468
-19 -19 -38 2 -55 64 -10 35 -51 172 -92 305 -136 447 -154 506 -209 712 -40
151 -38 142 -26 142 5 0 47 -57 94 -127z m503 -57 c97 -31 173 -82 234 -158
71 -88 110 -174 122 -268 6 -44 8 -84 4 -87 -3 -4 -20 4 -37 16 -17 13 -33 21
-35 18 -3 -3 11 -37 30 -76 31 -61 66 -164 66 -195 0 -5 -42 31 -93 81 -60 58
-125 108 -182 143 -50 29 -93 57 -98 64 -15 22 -55 163 -72 251 -10 50 -33
123 -52 163 -31 66 -37 73 -56 67 -45 -14 -77 -17 -77 -7 0 6 6 13 13 16 27
12 156 -3 233 -28z m898 -100 c-20 -118 -34 -154 -73 -188 -42 -37 -50 -25
-22 30 11 22 34 75 51 118 32 79 48 114 54 114 2 0 -3 -33 -10 -74z m-1142 32
c22 -6 46 -21 53 -32 15 -24 65 -201 65 -230 0 -19 0 -19 -21 0 -12 10 -34 44
-50 74 -16 30 -49 84 -74 119 -25 35 -45 67 -45 72 0 12 25 11 72 -3z m2 -243
c55 -74 86 -107 105 -111 38 -10 43 -14 31 -29 -6 -7 -43 -19 -82 -26 -87 -16
-88 -14 -113 109 -31 150 -32 162 -26 162 4 0 42 -47 85 -105z m1304 48 c-34
-39 -50 -89 -59 -187 -5 -55 -21 -150 -35 -211 -14 -60 -28 -130 -31 -154 -5
-34 -15 -53 -46 -82 -41 -41 -57 -48 -57 -26 0 6 18 75 40 152 42 147 45 165
31 165 -4 0 -23 -42 -41 -92 -48 -135 -95 -238 -155 -343 -30 -51 -75 -137
-101 -191 l-48 -99 -4 40 c-5 50 15 164 39 229 10 28 17 51 15 53 -2 2 -16
-15 -31 -37 -15 -22 -33 -40 -40 -40 -18 0 -29 71 -20 128 23 154 102 330 200
445 93 110 292 267 339 267 17 0 18 -2 4 -17z m58 -190 c-13 -222 -26 -306
-48 -330 -18 -20 -48 -31 -48 -19 0 2 11 41 24 87 31 106 56 228 56 271 0 18
3 50 6 71 12 72 17 36 10 -80z m-1073 -142 c95 -46 145 -86 232 -188 49 -57
70 -93 98 -167 38 -99 73 -223 65 -231 -3 -3 -22 2 -43 10 -20 9 -39 15 -41
13 -1 -2 10 -46 27 -98 37 -117 49 -170 40 -170 -4 0 -14 15 -23 33 -19 41
-111 153 -160 196 -21 18 -75 60 -120 94 -116 86 -120 98 -128 316 -6 161 -8
175 -28 191 -12 10 -31 15 -45 13 -33 -7 -75 15 -56 29 24 16 97 0 182 -41z
m-193 -49 c43 -21 48 -47 49 -239 1 -196 -29 -187 -73 22 -14 66 -32 145 -41
175 -8 30 -15 56 -15 58 0 9 51 -1 80 -16z m1238 -259 c2 -20 -9 -55 -31 -100
-41 -81 -66 -156 -106 -318 -55 -218 -103 -339 -199 -500 -65 -109 -92 -148
-99 -142 -5 5 43 258 62 327 8 30 12 56 10 59 -7 6 -76 -150 -120 -274 -7 -18
-8 -17 -16 10 -25 83 -29 155 -15 218 30 130 95 304 147 396 77 136 302 368
348 359 10 -2 17 -15 19 -35z m-1049 -257 c174 -119 243 -201 351 -416 57
-113 83 -180 75 -188 -3 -3 -18 7 -33 21 -60 57 -56 27 13 -108 31 -61 55
-120 55 -137 0 -30 -2 -29 -49 34 -50 65 -95 102 -297 241 -66 45 -115 86
-122 103 -7 15 -19 77 -27 138 -20 145 -80 329 -116 352 -6 3 -22 1 -35 -6
-19 -11 -29 -11 -50 -1 -48 21 -2 41 84 37 47 -2 64 -10 151 -70z m1181 -469
c0 -105 -89 -379 -190 -583 -63 -128 -139 -238 -154 -223 -3 3 21 52 54 110
56 97 109 234 124 323 10 55 -13 43 -37 -20 -62 -156 -118 -278 -199 -427 -50
-92 -92 -166 -94 -164 -6 6 51 224 72 276 32 80 8 50 -55 -71 -79 -150 -86
-144 -71 58 11 152 22 198 71 299 53 111 224 314 334 395 59 44 127 80 138 73
4 -2 7 -23 7 -46z m-1276 -96 c8 -12 -18 -21 -59 -21 -35 0 -55 14 -33 23 22
9 87 7 92 -2z m143 -58 c206 -126 290 -198 339 -295 66 -129 109 -248 90 -248
-3 0 -32 12 -65 26 -58 25 -62 26 -86 10 -34 -22 -32 -43 14 -161 22 -55 38
-101 36 -103 -2 -2 -45 17 -95 42 -51 26 -113 48 -141 52 -31 4 -53 13 -59 23
-4 9 -11 70 -15 136 -12 236 -51 462 -90 521 -31 47 -10 46 72 -3z m-118 -131
c25 -84 36 -152 25 -152 -9 0 -74 193 -74 217 0 7 6 10 14 7 8 -3 24 -36 35
-72z m-537 -131 c48 -54 143 -216 176 -301 22 -57 139 -455 168 -572 15 -61
15 -68 0 -90 -24 -33 -20 -46 23 -88 31 -30 42 -50 51 -97 7 -32 17 -69 22
-83 9 -22 11 -23 17 -7 4 10 4 43 1 73 -12 104 22 86 60 -31 13 -38 38 -103
57 -144 18 -40 33 -78 33 -83 0 -9 -60 -38 -80 -38 -6 0 -9 8 -5 18 6 20 -15
52 -74 115 -60 64 -74 36 -16 -33 34 -40 35 -45 35 -121 0 -53 8 -105 24 -161
63 -218 148 -664 122 -637 -5 4 -275 896 -312 1027 -12 45 -19 82 -15 82 5 0
21 -16 35 -35 15 -19 31 -35 37 -35 14 0 -14 60 -70 148 -28 43 -58 98 -66
123 -25 68 -249 868 -279 992 -9 39 6 33 56 -22z m1698 -341 c0 -98 -83 -274
-234 -494 -119 -174 -177 -243 -194 -232 -21 13 -14 127 14 222 14 49 49 134
77 189 44 84 68 116 152 200 86 87 148 134 178 135 4 0 7 -9 7 -20z m-606 -66
c57 -59 83 -150 101 -355 5 -47 3 -79 -3 -83 -14 -8 -38 58 -72 202 -16 65
-53 176 -85 255 -13 30 22 19 59 -19z m-741 -106 c48 -97 117 -309 117 -359 0
-31 -24 -49 -41 -32 -23 23 -149 434 -149 487 0 33 25 1 73 -96z m439 -4 c47
-19 186 -108 205 -133 16 -21 93 -202 93 -220 0 -8 -6 -11 -17 -6 -38 14 -106
22 -131 16 -43 -12 -39 -42 12 -100 46 -52 76 -108 76 -142 0 -11 -4 -19 -9
-19 -4 0 -50 34 -102 75 -52 42 -119 87 -149 101 -30 14 -62 29 -70 33 -23 11
-71 167 -79 254 -7 79 -7 80 -65 119 -16 10 6 29 46 39 45 11 137 3 190 -17z
m-260 -223 c20 -80 35 -148 32 -153 -18 -28 -39 17 -84 179 -30 107 -31 126
-2 121 12 -2 26 -43 54 -147z m1164 -176 c3 -8 -3 -27 -14 -42 -40 -57 -112
-267 -162 -469 -8 -35 -21 -48 -91 -98 -46 -34 -101 -84 -127 -118 -26 -33
-48 -55 -50 -49 -7 20 89 194 159 292 86 120 118 189 86 189 -14 0 -136 -160
-213 -280 l-48 -74 -9 28 c-17 50 8 178 48 254 37 71 194 256 264 311 36 28
119 69 144 71 4 0 10 -7 13 -15z m-1062 -75 c136 -22 336 -182 404 -324 53
-109 101 -353 74 -370 -5 -3 -36 21 -69 53 -57 56 -109 86 -265 154 -55 24
-58 28 -98 110 -38 80 -69 190 -70 249 0 20 -14 38 -55 73 -30 26 -55 51 -55
56 0 12 60 11 134 -1z m521 -113 c24 -104 29 -170 16 -195 -21 -39 -28 -24
-36 66 -4 48 -13 121 -21 162 -17 92 -17 90 6 62 10 -12 26 -55 35 -95z m565
-381 c0 -18 -7 -53 -15 -77 -9 -24 -27 -89 -41 -144 -41 -165 -136 -325 -194
-325 -29 0 -25 13 19 64 48 55 107 151 117 190 14 57 -20 21 -103 -108 -87
-137 -122 -179 -165 -202 -41 -21 -48 -18 -37 18 5 18 9 34 9 36 0 1 -13 -7
-29 -19 -16 -12 -34 -18 -40 -15 -6 4 -11 30 -11 58 0 40 8 68 36 122 116 226
181 303 320 384 108 63 134 66 134 18z m-915 -106 c57 -23 118 -51 137 -63 48
-33 114 -136 145 -230 25 -78 27 -94 30 -324 4 -225 3 -254 -22 -405 -32 -202
-52 -289 -68 -305 -6 -7 -39 -13 -73 -15 -46 -1 -68 3 -95 18 l-34 20 3 135
c2 74 7 184 11 244 18 249 -69 777 -149 906 -16 27 -30 51 -30 54 0 14 52 1
145 -35z m991 -134 c-29 -120 -80 -258 -101 -276 -25 -21 -31 17 -8 49 49 65
82 158 98 276 4 28 12 59 18 70 22 40 19 -11 -7 -119z m-1207 85 c33 -46 56
-109 84 -226 53 -228 85 -505 58 -505 -11 0 -65 197 -86 315 -9 50 -34 161
-56 249 -21 87 -39 167 -39 177 0 27 16 23 39 -10z m1005 -469 c3 -5 -19 -44
-48 -88 -104 -155 -315 -552 -361 -679 -36 -99 -53 -88 -31 22 8 43 20 133 26
201 15 159 29 211 83 302 25 41 57 96 71 123 33 58 89 97 165 113 69 15 88 16
95 6z m11 -259 c-26 -40 -169 -215 -188 -232 -34 -28 -15 9 57 112 67 93 133
163 145 152 2 -3 -4 -17 -14 -32z m-900 -174 c36 -116 39 -129 28 -129 -9 0
-63 180 -63 210 0 25 10 3 35 -81z"/>
<path d="M3000 7961 c0 -6 5 -13 10 -16 6 -3 10 1 10 9 0 9 -4 16 -10 16 -5 0
-10 -4 -10 -9z"/>
<path d="M2960 11285 c0 -23 22 -65 31 -59 13 8 11 48 -3 62 -16 16 -28 15
-28 -3z"/>
<path d="M3509 11260 c-2 -75 3 -145 12 -162 19 -36 25 -8 16 79 -10 96 -26
143 -28 83z"/>
<path d="M2087 11273 c-17 -16 -4 -82 37 -186 25 -62 50 -134 57 -162 6 -27
20 -66 29 -85 10 -19 31 -80 48 -135 39 -128 191 -676 204 -735 5 -25 22 -103
38 -175 16 -71 31 -158 35 -193 4 -34 12 -65 18 -69 20 -12 -2 252 -34 412
-56 277 -161 652 -255 912 -24 66 -49 145 -55 175 -6 29 -15 58 -18 63 -4 6
-13 30 -20 55 -14 49 -57 130 -70 130 -4 0 -11 -3 -14 -7z"/>
<path d="M2996 11101 c-8 -12 11 -61 23 -61 13 0 20 25 14 49 -5 21 -27 28
-37 12z"/>
<path d="M1644 11068 c3 -18 13 -91 21 -163 23 -179 58 -343 91 -415 15 -33
30 -60 34 -60 14 0 -42 291 -125 648 -8 35 -27 26 -21 -10z"/>
<path d="M554 11067 c-7 -20 121 -301 179 -392 40 -63 48 -39 17 49 -28 77
-141 303 -168 336 -19 23 -21 23 -28 7z"/>
<path d="M2803 10962 c4 -54 3 -111 -2 -128 -9 -33 4 -394 19 -529 11 -86 21
-115 43 -115 11 0 6 158 -18 535 -19 291 -24 335 -37 335 -8 0 -9 -31 -5 -98z"/>
<path d="M3270 10948 c1 -39 30 -142 44 -156 15 -15 16 -13 16 23 -1 49 -30
137 -47 143 -7 2 -13 -2 -13 -10z"/>
<path d="M2550 10910 c0 -5 5 -10 10 -10 6 0 10 5 10 10 0 6 -4 10 -10 10 -5
0 -10 -4 -10 -10z"/>
<path d="M786 10581 c-4 -5 13 -47 37 -93 24 -46 52 -107 62 -136 21 -59 74
-129 75 -100 0 10 -22 59 -48 110 -26 51 -58 119 -71 150 -24 60 -45 86 -55
69z"/>
<path d="M970 10181 c11 -40 29 -71 40 -71 16 0 11 33 -10 68 -25 40 -42 42
-30 3z"/>
<path d="M1083 9928 c31 -79 40 -98 48 -98 15 0 10 31 -13 71 -20 36 -47 56
-35 27z"/>
<path d="M1150 9776 c0 -8 5 -18 10 -21 6 -3 10 3 10 14 0 12 -4 21 -10 21 -5
0 -10 -6 -10 -14z"/>
<path d="M2220 9771 c0 -5 5 -13 10 -16 6 -3 10 -2 10 4 0 5 -4 13 -10 16 -5
3 -10 2 -10 -4z"/>
<path d="M1196 9682 c-3 -5 1 -18 9 -28 14 -18 14 -18 15 3 0 23 -15 39 -24
25z"/>
<path d="M4286 9618 c-14 -50 -32 -502 -27 -658 1 -28 4 -32 12 -18 24 42 62
604 45 671 -8 33 -21 35 -30 5z"/>
<path d="M1263 9520 c9 -42 60 -143 75 -148 21 -7 13 26 -23 98 -40 79 -62
101 -52 50z"/>
<path d="M1240 9406 c0 -8 5 -18 10 -21 6 -3 10 3 10 14 0 12 -4 21 -10 21 -5
0 -10 -6 -10 -14z"/>
<path d="M1366 9321 c-13 -20 1 -56 109 -275 130 -266 163 -341 190 -441 18
-64 26 -81 44 -85 28 -7 115 -152 146 -244 13 -39 42 -174 65 -300 22 -125 47
-244 55 -263 13 -31 17 -34 31 -22 18 14 16 31 -17 212 -11 60 -19 116 -17
125 5 21 61 -64 124 -187 43 -85 78 -131 89 -119 5 5 -103 223 -190 383 -52
94 -67 154 -95 375 -28 225 -39 286 -62 348 -20 53 -34 65 -45 36 -3 -8 6 -86
21 -172 29 -178 35 -250 21 -253 -14 -3 -110 185 -147 285 -16 44 -36 117 -44
161 -27 143 -45 215 -53 210 -5 -2 -2 -35 5 -72 15 -76 18 -143 7 -143 -5 0
-24 35 -43 78 -62 138 -158 337 -173 356 -10 14 -16 16 -21 7z"/>
<path d="M1280 9173 c1 -10 7 -31 15 -48 l14 -30 -2 44 c-1 25 -7 46 -14 49
-8 2 -13 -4 -13 -15z"/>
<path d="M1567 9183 c-7 -11 10 -40 18 -31 4 4 3 14 -3 24 -5 9 -12 12 -15 7z"/>
<path d="M3060 8950 c0 -11 5 -20 10 -20 6 0 10 9 10 20 0 11 -4 20 -10 20 -5
0 -10 -9 -10 -20z"/>
<path d="M1344 8876 c7 -65 30 -126 45 -126 25 0 -12 169 -38 178 -11 4 -13
-6 -7 -52z"/>
<path d="M4248 8835 c-12 -21 -16 -61 -8 -80 7 -18 9 -18 19 9 11 28 1 92 -11
71z"/>
<path d="M4226 8625 c-11 -29 -7 -67 7 -63 15 6 21 43 9 64 -8 15 -10 15 -16
-1z"/>
<path d="M4213 8504 c-3 -8 -1 -20 6 -27 8 -8 11 -4 11 16 0 30 -7 35 -17 11z"/>
<path d="M1711 8378 c0 -13 9 -45 19 -73 18 -50 18 -50 19 -15 1 44 -17 110
-29 110 -6 0 -10 -10 -9 -22z"/>
<path d="M4207 8343 c-12 -41 -18 -133 -9 -133 5 0 12 32 16 71 6 70 3 99 -7
62z"/>
<path d="M4174 8080 c-6 -47 -8 -92 -4 -100 11 -20 22 61 18 130 -3 55 -3 55
-14 -30z"/>
<path d="M3385 8080 c-12 -19 -18 -110 -8 -110 10 0 20 22 37 73 10 32 -13 62
-29 37z"/>
<path d="M4158 7877 c-12 -30 -10 -103 3 -90 5 5 9 32 7 59 -2 34 -5 43 -10
31z"/>
<path d="M2190 7686 c0 -9 5 -16 10 -16 6 0 10 4 10 9 0 6 -4 13 -10 16 -5 3
-10 -1 -10 -9z"/>
<path d="M4142 7670 c0 -14 2 -19 5 -12 2 6 2 18 0 25 -3 6 -5 1 -5 -13z"/>
<path d="M2220 7625 c0 -21 17 -45 32 -45 14 0 9 17 -12 41 -19 23 -19 23 -20
4z"/>
</g>
</svg>
